<svg width="202" height="55" viewBox="0 0 202 55" fill="none" xmlns="http://www.w3.org/2000/svg">
<path d="M0.4375 55V0H11.3125V22.0312L16.4375 0H27.5L21.3438 25.1875L28.7812 55H17.375L11.375 28.375V55H0.4375ZM29.1875 55L34.5 6.25H53.1562L58.375 55H47.9688L47.25 46.125H40.5L39.875 55H29.1875ZM43.4375 15L41.4062 37.3438H46.2188L43.9375 15H43.4375ZM61.75 55V6.25H72.75V45.625H84.0625V55H61.75ZM87.1875 55V6.25H98.1875V45.625H109.5V55H87.1875ZM117.156 55V36.9062L108.375 6.25H119.281L122.344 24.9062L125.406 6.25H136.281L127.531 36.9062V55H117.156ZM138.5 39.0938V31.8438H154.625V39.0938H138.5ZM159 55V0H175.75L180.375 33.5312L184.969 0H201.875V55H191.812V15.375L185.5 55H175.625L168.938 15.375V55H159Z" fill="#6C6B6B"/>
</svg>
